<?xml version="1.0" encoding="utf-8"?>
<!-- Generator: Adobe Illustrator 21.1.0, SVG Export Plug-In . SVG Version: 6.00 Build 0)  -->
<svg version="1.1" id="Layer_1" xmlns="http://www.w3.org/2000/svg" xmlns:xlink="http://www.w3.org/1999/xlink" x="0px" y="0px"
	 viewBox="0 0 512 512" style="enable-background:new 0 0 512 512;" xml:space="preserve">
<style type="text/css">
	.st0{fill:#54C0EB;}
	.st1{fill:#FFFFFF;}
	.st2{fill:#4CDBC4;}
	.st3{fill:#FFCE54;}
	.st4{fill:#D1D4D1;}
	.st5{fill:#556080;}
</style>
<circle class="st0" cx="256.2" cy="256.6" r="255.5"/>
<g>
	<rect x="127.9" y="125.7" class="st1" width="256.6" height="298.7"/>
	<path class="st2" d="M217.7,248.5l-30.5,52.4c0,0,54.6,0.5,58,0C248.7,300.4,217.7,248.5,217.7,248.5z"/>
	<g>
		<path class="st3" d="M273.9,213.1l-51.4,88.1c0,0,92,0.8,97.8,0C326.1,300.3,273.9,213.1,273.9,213.1z"/>
		<rect x="162.6" y="112.4" class="st4" width="30.6" height="29.1"/>
		<rect x="320.3" y="109.1" class="st4" width="30.6" height="29.1"/>
	</g>
	<path class="st5" d="M374.2,117.8h-15.7v-15.7h-15.7V54.9H327v47.2h-15.7v15.7H201.2v-15.7h-15.7V54.9h-15.7v47.2H154v15.7h-15.7
		h-15.7v15.7v283.1v15.7h15.7h236h15.7v-15.7V133.5v-15.7H374.2z M327,117.8h15.7v15.7H327V117.8z M169.7,117.8h15.7v15.7h-15.7
		V117.8z M374.2,416.7h-236V133.5H154v15.7h47.2v-15.7h110.1v15.7h47.2v-15.7h15.7V416.7z"/>
	<path class="st4" d="M287.7,369.5h-62.9c-4.3,0-7.9,3.5-7.9,7.9s3.5,7.9,7.9,7.9h62.9c4.3,0,7.9-3.5,7.9-7.9S292,369.5,287.7,369.5
		z"/>
	<path class="st4" d="M319.1,338H193.3c-4.3,0-7.9,3.5-7.9,7.9c0,4.4,3.5,7.9,7.9,7.9h125.8c4.3,0,7.9-3.5,7.9-7.9
		C327,341.5,323.5,338,319.1,338z"/>
</g>
</svg>
