<?xml version="1.0" encoding="utf-8"?>
<!-- Generator: Adobe Illustrator 21.1.0, SVG Export Plug-In . SVG Version: 6.00 Build 0)  -->
<svg version="1.1" id="Capa_1" xmlns="http://www.w3.org/2000/svg" xmlns:xlink="http://www.w3.org/1999/xlink" x="0px" y="0px"
	 viewBox="0 0 60 60" style="enable-background:new 0 0 60 60;" xml:space="preserve">
<style type="text/css">
	.st0{fill:#F3D55B;}
	.st1{fill:#556080;}
	.st2{fill:#FFFFFF;}
	.st3{fill:#4CDBC4;}
	.st4{fill:#54C0EB;}
	.st5{fill:#D1D4D1;}
</style>
<circle class="st0" cx="30" cy="30" r="30"/>
<g>
	<rect x="11.5" y="12.9" class="st1" width="38.4" height="4"/>
	<rect x="12.9" y="16.8" class="st2" width="35.8" height="27.8"/>
	<path class="st3" d="M34.7,42c-0.4,0-0.7-0.3-0.7-0.7v-2c0-0.4,0.3-0.7,0.7-0.7s0.7,0.3,0.7,0.7v2C35.4,41.8,35.1,42,34.7,42z"/>
	<path class="st0" d="M37.4,42c-0.4,0-0.7-0.3-0.7-0.7v-4.6c0-0.4,0.3-0.7,0.7-0.7s0.7,0.3,0.7,0.7v4.6C38,41.8,37.8,42,37.4,42z"/>
	<path class="st3" d="M40,42c-0.4,0-0.7-0.3-0.7-0.7V38c0-0.4,0.3-0.7,0.7-0.7s0.7,0.3,0.7,0.7v3.3C40.7,41.8,40.4,42,40,42z"/>
	<path class="st4" d="M42.7,42c-0.4,0-0.7-0.3-0.7-0.7v-8c0-0.4,0.3-0.7,0.7-0.7s0.7,0.3,0.7,0.7v8C43.3,41.8,43.1,42,42.7,42z"/>
	<path class="st3" d="M45.3,42c-0.4,0-0.7-0.3-0.7-0.7V36c0-0.4,0.3-0.7,0.7-0.7S46,35.6,46,36v5.3C46,41.8,45.7,42,45.3,42z"/>
	<path class="st5" d="M24.1,38.7h-6.6c-0.4,0-0.7-0.3-0.7-0.7s0.3-0.7,0.7-0.7h6.6c0.4,0,0.7,0.3,0.7,0.7
		C24.8,38.4,24.5,38.7,24.1,38.7z"/>
	<path class="st5" d="M27.4,41.4h-9.9c-0.4,0-0.7-0.3-0.7-0.7s0.3-0.7,0.7-0.7h9.9c0.4,0,0.7,0.3,0.7,0.7S27.8,41.4,27.4,41.4z"/>
	<circle class="st4" cx="23.8" cy="27.1" r="7"/>
	<path class="st0" d="M23.5,20.1L23.5,20.1v7.3l0,0h7.3l0,0C31,23.3,27.6,19.9,23.5,20.1z"/>
	<path class="st5" d="M42,24.8h-5.3c-0.4,0-0.7-0.3-0.7-0.7s0.3-0.7,0.7-0.7H42c0.4,0,0.7,0.3,0.7,0.7S42.4,24.8,42,24.8z"/>
	<path class="st5" d="M45.3,24.8c-0.2,0-0.3-0.1-0.5-0.2c-0.1-0.1-0.2-0.3-0.2-0.5s0.1-0.3,0.2-0.5c0.3-0.3,0.7-0.3,0.9,0
		c0.1,0.1,0.2,0.3,0.2,0.5s-0.1,0.3-0.2,0.5C45.7,24.7,45.5,24.8,45.3,24.8z"/>
	<path class="st5" d="M45.3,21.5h-2c-0.4,0-0.7-0.3-0.7-0.7s0.3-0.7,0.7-0.7h2c0.4,0,0.7,0.3,0.7,0.7S45.7,21.5,45.3,21.5z"/>
	<path class="st5" d="M38,21.5h-1.3c-0.4,0-0.7-0.3-0.7-0.7s0.3-0.7,0.7-0.7H38c0.4,0,0.7,0.3,0.7,0.7S38.4,21.5,38,21.5z"/>
	<path class="st5" d="M40.7,21.5c-0.2,0-0.3-0.1-0.5-0.2C40.1,21.1,40,21,40,20.8s0.1-0.3,0.2-0.5c0.3-0.3,0.7-0.3,0.9,0
		c0.1,0.1,0.2,0.3,0.2,0.5s-0.1,0.3-0.2,0.5C41,21.4,40.9,21.5,40.7,21.5z"/>
	<path class="st1" d="M50,45.3H11.5c-0.4,0-0.7-0.3-0.7-0.7s0.3-0.7,0.7-0.7H50c0.4,0,0.7,0.3,0.7,0.7C50.6,45.1,50.4,45.3,50,45.3z
		"/>
	<path class="st1" d="M30.8,47.3c-0.4,0-0.7-0.3-0.7-0.7v-2c0-0.4,0.3-0.7,0.7-0.7s0.7,0.3,0.7,0.7v2C31.4,47.1,31.2,47.3,30.8,47.3
		z"/>
	<path class="st1" d="M30.8,52c-1.5,0-2.7-1.2-2.7-2.7s1.2-2.7,2.7-2.7s2.7,1.2,2.7,2.7S32.2,52,30.8,52z M30.8,48
		c-0.7,0-1.3,0.6-1.3,1.3s0.6,1.3,1.3,1.3s1.3-0.6,1.3-1.3S31.5,48,30.8,48z"/>
</g>
</svg>
